<mxfile host="app.diagrams.net" modified="2023-07-01T21:24:24.148Z" agent="Mozilla/5.0 (Windows NT 10.0; Win64; x64) AppleWebKit/537.36 (KHTML, like Gecko) Chrome/114.0.0.0 Safari/537.36" etag="nzOrIDKk1yJ_J1N86sv5" version="21.3.6" type="github">
  <diagram id="C5RBs43oDa-KdzZeNtuy" name="Page-1">
    <mxGraphModel dx="1947" dy="452" grid="1" gridSize="10" guides="1" tooltips="1" connect="1" arrows="1" fold="1" page="1" pageScale="1" pageWidth="827" pageHeight="1169" math="0" shadow="0">
      <root>
        <mxCell id="WIyWlLk6GJQsqaUBKTNV-0" />
        <mxCell id="WIyWlLk6GJQsqaUBKTNV-1" parent="WIyWlLk6GJQsqaUBKTNV-0" />
        <mxCell id="zkfFHV4jXpPFQw0GAbJ--0" value="Context" style="swimlane;fontStyle=2;align=center;verticalAlign=top;childLayout=stackLayout;horizontal=1;startSize=26;horizontalStack=0;resizeParent=1;resizeLast=0;collapsible=1;marginBottom=0;rounded=0;shadow=0;strokeWidth=1;" parent="WIyWlLk6GJQsqaUBKTNV-1" vertex="1">
          <mxGeometry y="130" width="210" height="138" as="geometry">
            <mxRectangle x="230" y="140" width="160" height="26" as="alternateBounds" />
          </mxGeometry>
        </mxCell>
        <mxCell id="zkfFHV4jXpPFQw0GAbJ--1" value="- State state" style="text;align=left;verticalAlign=top;spacingLeft=4;spacingRight=4;overflow=hidden;rotatable=0;points=[[0,0.5],[1,0.5]];portConstraint=eastwest;" parent="zkfFHV4jXpPFQw0GAbJ--0" vertex="1">
          <mxGeometry y="26" width="210" height="26" as="geometry" />
        </mxCell>
        <mxCell id="6PBvyCpjfgC3d_i1cKHy-35" value="- [SerializeField] DataState dataState" style="text;align=left;verticalAlign=top;spacingLeft=4;spacingRight=4;overflow=hidden;rotatable=0;points=[[0,0.5],[1,0.5]];portConstraint=eastwest;" vertex="1" parent="zkfFHV4jXpPFQw0GAbJ--0">
          <mxGeometry y="52" width="210" height="26" as="geometry" />
        </mxCell>
        <mxCell id="zkfFHV4jXpPFQw0GAbJ--4" value="" style="line;html=1;strokeWidth=1;align=left;verticalAlign=middle;spacingTop=-1;spacingLeft=3;spacingRight=3;rotatable=0;labelPosition=right;points=[];portConstraint=eastwest;" parent="zkfFHV4jXpPFQw0GAbJ--0" vertex="1">
          <mxGeometry y="78" width="210" height="8" as="geometry" />
        </mxCell>
        <mxCell id="6PBvyCpjfgC3d_i1cKHy-34" value="- GetDataState()" style="text;align=left;verticalAlign=top;spacingLeft=4;spacingRight=4;overflow=hidden;rotatable=0;points=[[0,0.5],[1,0.5]];portConstraint=eastwest;" vertex="1" parent="zkfFHV4jXpPFQw0GAbJ--0">
          <mxGeometry y="86" width="210" height="26" as="geometry" />
        </mxCell>
        <mxCell id="6PBvyCpjfgC3d_i1cKHy-56" value="- InitState()" style="text;align=left;verticalAlign=top;spacingLeft=4;spacingRight=4;overflow=hidden;rotatable=0;points=[[0,0.5],[1,0.5]];portConstraint=eastwest;" vertex="1" parent="zkfFHV4jXpPFQw0GAbJ--0">
          <mxGeometry y="112" width="210" height="26" as="geometry" />
        </mxCell>
        <mxCell id="6PBvyCpjfgC3d_i1cKHy-3" value="" style="endArrow=diamondThin;endFill=0;endSize=24;html=1;rounded=0;entryX=1;entryY=0.5;entryDx=0;entryDy=0;exitX=0;exitY=0.5;exitDx=0;exitDy=0;" edge="1" parent="WIyWlLk6GJQsqaUBKTNV-1" source="6PBvyCpjfgC3d_i1cKHy-5" target="zkfFHV4jXpPFQw0GAbJ--0">
          <mxGeometry width="160" relative="1" as="geometry">
            <mxPoint x="370" y="200" as="sourcePoint" />
            <mxPoint x="260" y="250" as="targetPoint" />
          </mxGeometry>
        </mxCell>
        <mxCell id="6PBvyCpjfgC3d_i1cKHy-5" value="&lt;p style=&quot;margin:0px;margin-top:4px;text-align:center;&quot;&gt;&lt;i&gt;&amp;lt;&amp;lt;Interface&amp;gt;&amp;gt;&lt;/i&gt;&lt;br&gt;&lt;b&gt;State&lt;/b&gt;&lt;/p&gt;&lt;hr size=&quot;1&quot;&gt;&lt;p style=&quot;margin:0px;margin-left:4px;&quot;&gt;&lt;/p&gt;&lt;p style=&quot;margin:0px;margin-left:4px;&quot;&gt;+ InitState()&lt;/p&gt;&lt;p style=&quot;margin:0px;margin-left:4px;&quot;&gt;+ GetActived():bool&lt;br&gt;&lt;/p&gt;" style="verticalAlign=top;align=left;overflow=fill;fontSize=12;fontFamily=Helvetica;html=1;whiteSpace=wrap;" vertex="1" parent="WIyWlLk6GJQsqaUBKTNV-1">
          <mxGeometry x="280" y="159" width="190" height="80" as="geometry" />
        </mxCell>
        <mxCell id="6PBvyCpjfgC3d_i1cKHy-6" value="NoMoney" style="swimlane;fontStyle=1;align=center;verticalAlign=top;childLayout=stackLayout;horizontal=1;startSize=26;horizontalStack=0;resizeParent=1;resizeParentMax=0;resizeLast=0;collapsible=1;marginBottom=0;whiteSpace=wrap;html=1;" vertex="1" parent="WIyWlLk6GJQsqaUBKTNV-1">
          <mxGeometry x="250" y="360" width="230" height="204" as="geometry" />
        </mxCell>
        <mxCell id="6PBvyCpjfgC3d_i1cKHy-7" value="- money: int&lt;br&gt;- actived: bool" style="text;strokeColor=none;fillColor=none;align=left;verticalAlign=top;spacingLeft=4;spacingRight=4;overflow=hidden;rotatable=0;points=[[0,0.5],[1,0.5]];portConstraint=eastwest;whiteSpace=wrap;html=1;" vertex="1" parent="6PBvyCpjfgC3d_i1cKHy-6">
          <mxGeometry y="26" width="230" height="34" as="geometry" />
        </mxCell>
        <mxCell id="6PBvyCpjfgC3d_i1cKHy-43" value="- [SerializeField] DataState dataState" style="text;align=left;verticalAlign=top;spacingLeft=4;spacingRight=4;overflow=hidden;rotatable=0;points=[[0,0.5],[1,0.5]];portConstraint=eastwest;" vertex="1" parent="6PBvyCpjfgC3d_i1cKHy-6">
          <mxGeometry y="60" width="230" height="26" as="geometry" />
        </mxCell>
        <mxCell id="6PBvyCpjfgC3d_i1cKHy-8" value="" style="line;strokeWidth=1;fillColor=none;align=left;verticalAlign=middle;spacingTop=-1;spacingLeft=3;spacingRight=3;rotatable=0;labelPosition=right;points=[];portConstraint=eastwest;strokeColor=inherit;" vertex="1" parent="6PBvyCpjfgC3d_i1cKHy-6">
          <mxGeometry y="86" width="230" height="8" as="geometry" />
        </mxCell>
        <mxCell id="6PBvyCpjfgC3d_i1cKHy-9" value="+ GetMoney(): int&lt;br&gt;+ SetMoney(int amount)&lt;br&gt;+ InitState()&lt;br&gt;+ GetActived():bool" style="text;strokeColor=none;fillColor=none;align=left;verticalAlign=top;spacingLeft=4;spacingRight=4;overflow=hidden;rotatable=0;points=[[0,0.5],[1,0.5]];portConstraint=eastwest;whiteSpace=wrap;html=1;" vertex="1" parent="6PBvyCpjfgC3d_i1cKHy-6">
          <mxGeometry y="94" width="230" height="110" as="geometry" />
        </mxCell>
        <mxCell id="6PBvyCpjfgC3d_i1cKHy-10" value="StealBackPack" style="swimlane;fontStyle=1;align=center;verticalAlign=top;childLayout=stackLayout;horizontal=1;startSize=26;horizontalStack=0;resizeParent=1;resizeParentMax=0;resizeLast=0;collapsible=1;marginBottom=0;whiteSpace=wrap;html=1;" vertex="1" parent="WIyWlLk6GJQsqaUBKTNV-1">
          <mxGeometry x="500" y="358" width="220" height="216" as="geometry" />
        </mxCell>
        <mxCell id="6PBvyCpjfgC3d_i1cKHy-11" value="- money: int&lt;br&gt;- actived: bool" style="text;strokeColor=none;fillColor=none;align=left;verticalAlign=top;spacingLeft=4;spacingRight=4;overflow=hidden;rotatable=0;points=[[0,0.5],[1,0.5]];portConstraint=eastwest;whiteSpace=wrap;html=1;" vertex="1" parent="6PBvyCpjfgC3d_i1cKHy-10">
          <mxGeometry y="26" width="220" height="44" as="geometry" />
        </mxCell>
        <mxCell id="6PBvyCpjfgC3d_i1cKHy-44" value="- [SerializeField] DataState dataState" style="text;align=left;verticalAlign=top;spacingLeft=4;spacingRight=4;overflow=hidden;rotatable=0;points=[[0,0.5],[1,0.5]];portConstraint=eastwest;" vertex="1" parent="6PBvyCpjfgC3d_i1cKHy-10">
          <mxGeometry y="70" width="220" height="26" as="geometry" />
        </mxCell>
        <mxCell id="6PBvyCpjfgC3d_i1cKHy-12" value="" style="line;strokeWidth=1;fillColor=none;align=left;verticalAlign=middle;spacingTop=-1;spacingLeft=3;spacingRight=3;rotatable=0;labelPosition=right;points=[];portConstraint=eastwest;strokeColor=inherit;" vertex="1" parent="6PBvyCpjfgC3d_i1cKHy-10">
          <mxGeometry y="96" width="220" height="8" as="geometry" />
        </mxCell>
        <mxCell id="6PBvyCpjfgC3d_i1cKHy-13" value="+ GetMoney(): int&lt;br&gt;+ SetMoney(int amount)&lt;br&gt;+ InitState()&lt;br&gt;+ GetActived():bool" style="text;strokeColor=none;fillColor=none;align=left;verticalAlign=top;spacingLeft=4;spacingRight=4;overflow=hidden;rotatable=0;points=[[0,0.5],[1,0.5]];portConstraint=eastwest;whiteSpace=wrap;html=1;" vertex="1" parent="6PBvyCpjfgC3d_i1cKHy-10">
          <mxGeometry y="104" width="220" height="112" as="geometry" />
        </mxCell>
        <mxCell id="6PBvyCpjfgC3d_i1cKHy-14" value="" style="endArrow=block;dashed=1;endFill=0;endSize=12;html=1;rounded=0;" edge="1" parent="WIyWlLk6GJQsqaUBKTNV-1">
          <mxGeometry width="160" relative="1" as="geometry">
            <mxPoint x="352" y="360" as="sourcePoint" />
            <mxPoint x="352" y="240" as="targetPoint" />
          </mxGeometry>
        </mxCell>
        <mxCell id="6PBvyCpjfgC3d_i1cKHy-15" value="" style="endArrow=block;dashed=1;endFill=0;endSize=12;html=1;rounded=0;exitX=0.5;exitY=0;exitDx=0;exitDy=0;" edge="1" parent="WIyWlLk6GJQsqaUBKTNV-1" source="6PBvyCpjfgC3d_i1cKHy-10">
          <mxGeometry width="160" relative="1" as="geometry">
            <mxPoint x="395" y="370" as="sourcePoint" />
            <mxPoint x="370" y="240" as="targetPoint" />
            <Array as="points">
              <mxPoint x="610" y="290" />
              <mxPoint x="490" y="290" />
              <mxPoint x="370" y="290" />
            </Array>
          </mxGeometry>
        </mxCell>
        <mxCell id="6PBvyCpjfgC3d_i1cKHy-17" value="&lt;font style=&quot;font-size: 18px;&quot;&gt;States&lt;/font&gt;" style="text;html=1;strokeColor=none;fillColor=none;align=center;verticalAlign=middle;whiteSpace=wrap;rounded=0;" vertex="1" parent="WIyWlLk6GJQsqaUBKTNV-1">
          <mxGeometry x="650" y="600" width="60" height="30" as="geometry" />
        </mxCell>
        <mxCell id="6PBvyCpjfgC3d_i1cKHy-18" value="FamilyDead" style="swimlane;fontStyle=1;align=center;verticalAlign=top;childLayout=stackLayout;horizontal=1;startSize=26;horizontalStack=0;resizeParent=1;resizeParentMax=0;resizeLast=0;collapsible=1;marginBottom=0;whiteSpace=wrap;html=1;" vertex="1" parent="WIyWlLk6GJQsqaUBKTNV-1">
          <mxGeometry x="740" y="360" width="221" height="216" as="geometry" />
        </mxCell>
        <mxCell id="6PBvyCpjfgC3d_i1cKHy-19" value="- money: int&lt;br&gt;- actived: bool" style="text;strokeColor=none;fillColor=none;align=left;verticalAlign=top;spacingLeft=4;spacingRight=4;overflow=hidden;rotatable=0;points=[[0,0.5],[1,0.5]];portConstraint=eastwest;whiteSpace=wrap;html=1;" vertex="1" parent="6PBvyCpjfgC3d_i1cKHy-18">
          <mxGeometry y="26" width="221" height="44" as="geometry" />
        </mxCell>
        <mxCell id="6PBvyCpjfgC3d_i1cKHy-45" value="- [SerializeField] DataState dataState" style="text;align=left;verticalAlign=top;spacingLeft=4;spacingRight=4;overflow=hidden;rotatable=0;points=[[0,0.5],[1,0.5]];portConstraint=eastwest;" vertex="1" parent="6PBvyCpjfgC3d_i1cKHy-18">
          <mxGeometry y="70" width="221" height="26" as="geometry" />
        </mxCell>
        <mxCell id="6PBvyCpjfgC3d_i1cKHy-20" value="" style="line;strokeWidth=1;fillColor=none;align=left;verticalAlign=middle;spacingTop=-1;spacingLeft=3;spacingRight=3;rotatable=0;labelPosition=right;points=[];portConstraint=eastwest;strokeColor=inherit;" vertex="1" parent="6PBvyCpjfgC3d_i1cKHy-18">
          <mxGeometry y="96" width="221" height="8" as="geometry" />
        </mxCell>
        <mxCell id="6PBvyCpjfgC3d_i1cKHy-21" value="+ InitState()&lt;br&gt;+ GetActived():bool" style="text;strokeColor=none;fillColor=none;align=left;verticalAlign=top;spacingLeft=4;spacingRight=4;overflow=hidden;rotatable=0;points=[[0,0.5],[1,0.5]];portConstraint=eastwest;whiteSpace=wrap;html=1;" vertex="1" parent="6PBvyCpjfgC3d_i1cKHy-18">
          <mxGeometry y="104" width="221" height="112" as="geometry" />
        </mxCell>
        <mxCell id="6PBvyCpjfgC3d_i1cKHy-22" value="" style="endArrow=block;dashed=1;endFill=0;endSize=12;html=1;rounded=0;exitX=0.5;exitY=0;exitDx=0;exitDy=0;entryX=0.566;entryY=0.998;entryDx=0;entryDy=0;entryPerimeter=0;" edge="1" parent="WIyWlLk6GJQsqaUBKTNV-1" source="6PBvyCpjfgC3d_i1cKHy-18" target="6PBvyCpjfgC3d_i1cKHy-5">
          <mxGeometry width="160" relative="1" as="geometry">
            <mxPoint x="620" y="368" as="sourcePoint" />
            <mxPoint x="380" y="240" as="targetPoint" />
            <Array as="points">
              <mxPoint x="851" y="280" />
              <mxPoint x="388" y="280" />
            </Array>
          </mxGeometry>
        </mxCell>
        <mxCell id="6PBvyCpjfgC3d_i1cKHy-23" value="LitoDead" style="swimlane;fontStyle=1;align=center;verticalAlign=top;childLayout=stackLayout;horizontal=1;startSize=26;horizontalStack=0;resizeParent=1;resizeParentMax=0;resizeLast=0;collapsible=1;marginBottom=0;whiteSpace=wrap;html=1;" vertex="1" parent="WIyWlLk6GJQsqaUBKTNV-1">
          <mxGeometry x="1000" y="360" width="220" height="206" as="geometry" />
        </mxCell>
        <mxCell id="6PBvyCpjfgC3d_i1cKHy-24" value="- money: int&lt;br&gt;- actived: bool" style="text;strokeColor=none;fillColor=none;align=left;verticalAlign=top;spacingLeft=4;spacingRight=4;overflow=hidden;rotatable=0;points=[[0,0.5],[1,0.5]];portConstraint=eastwest;whiteSpace=wrap;html=1;" vertex="1" parent="6PBvyCpjfgC3d_i1cKHy-23">
          <mxGeometry y="26" width="220" height="34" as="geometry" />
        </mxCell>
        <mxCell id="6PBvyCpjfgC3d_i1cKHy-46" value="- [SerializeField] DataState dataState" style="text;align=left;verticalAlign=top;spacingLeft=4;spacingRight=4;overflow=hidden;rotatable=0;points=[[0,0.5],[1,0.5]];portConstraint=eastwest;" vertex="1" parent="6PBvyCpjfgC3d_i1cKHy-23">
          <mxGeometry y="60" width="220" height="26" as="geometry" />
        </mxCell>
        <mxCell id="6PBvyCpjfgC3d_i1cKHy-25" value="" style="line;strokeWidth=1;fillColor=none;align=left;verticalAlign=middle;spacingTop=-1;spacingLeft=3;spacingRight=3;rotatable=0;labelPosition=right;points=[];portConstraint=eastwest;strokeColor=inherit;" vertex="1" parent="6PBvyCpjfgC3d_i1cKHy-23">
          <mxGeometry y="86" width="220" height="8" as="geometry" />
        </mxCell>
        <mxCell id="6PBvyCpjfgC3d_i1cKHy-26" value="+ InitState()&lt;br&gt;+ GetActived():bool" style="text;strokeColor=none;fillColor=none;align=left;verticalAlign=top;spacingLeft=4;spacingRight=4;overflow=hidden;rotatable=0;points=[[0,0.5],[1,0.5]];portConstraint=eastwest;whiteSpace=wrap;html=1;" vertex="1" parent="6PBvyCpjfgC3d_i1cKHy-23">
          <mxGeometry y="94" width="220" height="112" as="geometry" />
        </mxCell>
        <mxCell id="6PBvyCpjfgC3d_i1cKHy-27" value="" style="endArrow=block;dashed=1;endFill=0;endSize=12;html=1;rounded=0;exitX=0.5;exitY=0;exitDx=0;exitDy=0;" edge="1" parent="WIyWlLk6GJQsqaUBKTNV-1" source="6PBvyCpjfgC3d_i1cKHy-23">
          <mxGeometry width="160" relative="1" as="geometry">
            <mxPoint x="820" y="370" as="sourcePoint" />
            <mxPoint x="410" y="240" as="targetPoint" />
            <Array as="points">
              <mxPoint x="1110" y="270" />
              <mxPoint x="690" y="270" />
              <mxPoint x="410" y="270" />
            </Array>
          </mxGeometry>
        </mxCell>
        <mxCell id="6PBvyCpjfgC3d_i1cKHy-30" value="DataState" style="swimlane;fontStyle=1;align=center;verticalAlign=top;childLayout=stackLayout;horizontal=1;startSize=26;horizontalStack=0;resizeParent=1;resizeParentMax=0;resizeLast=0;collapsible=1;marginBottom=0;whiteSpace=wrap;html=1;" vertex="1" parent="WIyWlLk6GJQsqaUBKTNV-1">
          <mxGeometry x="-17.5" y="650" width="245" height="356" as="geometry" />
        </mxCell>
        <mxCell id="6PBvyCpjfgC3d_i1cKHy-31" value="- activedNoMoney: bool" style="text;strokeColor=none;fillColor=none;align=left;verticalAlign=top;spacingLeft=4;spacingRight=4;overflow=hidden;rotatable=0;points=[[0,0.5],[1,0.5]];portConstraint=eastwest;whiteSpace=wrap;html=1;" vertex="1" parent="6PBvyCpjfgC3d_i1cKHy-30">
          <mxGeometry y="26" width="245" height="26" as="geometry" />
        </mxCell>
        <mxCell id="6PBvyCpjfgC3d_i1cKHy-37" value="- activedStealBackPack : bool" style="text;strokeColor=none;fillColor=none;align=left;verticalAlign=top;spacingLeft=4;spacingRight=4;overflow=hidden;rotatable=0;points=[[0,0.5],[1,0.5]];portConstraint=eastwest;whiteSpace=wrap;html=1;" vertex="1" parent="6PBvyCpjfgC3d_i1cKHy-30">
          <mxGeometry y="52" width="245" height="28" as="geometry" />
        </mxCell>
        <mxCell id="6PBvyCpjfgC3d_i1cKHy-36" value="- activedFamilyDead : bool" style="text;strokeColor=none;fillColor=none;align=left;verticalAlign=top;spacingLeft=4;spacingRight=4;overflow=hidden;rotatable=0;points=[[0,0.5],[1,0.5]];portConstraint=eastwest;whiteSpace=wrap;html=1;" vertex="1" parent="6PBvyCpjfgC3d_i1cKHy-30">
          <mxGeometry y="80" width="245" height="30" as="geometry" />
        </mxCell>
        <mxCell id="6PBvyCpjfgC3d_i1cKHy-38" value="- activedLitoDead : bool" style="text;strokeColor=none;fillColor=none;align=left;verticalAlign=top;spacingLeft=4;spacingRight=4;overflow=hidden;rotatable=0;points=[[0,0.5],[1,0.5]];portConstraint=eastwest;whiteSpace=wrap;html=1;" vertex="1" parent="6PBvyCpjfgC3d_i1cKHy-30">
          <mxGeometry y="110" width="245" height="30" as="geometry" />
        </mxCell>
        <mxCell id="6PBvyCpjfgC3d_i1cKHy-32" value="" style="line;strokeWidth=1;fillColor=none;align=left;verticalAlign=middle;spacingTop=-1;spacingLeft=3;spacingRight=3;rotatable=0;labelPosition=right;points=[];portConstraint=eastwest;strokeColor=inherit;" vertex="1" parent="6PBvyCpjfgC3d_i1cKHy-30">
          <mxGeometry y="140" width="245" height="8" as="geometry" />
        </mxCell>
        <mxCell id="6PBvyCpjfgC3d_i1cKHy-39" value="+ GetStateNoMoney(): bool" style="text;strokeColor=none;fillColor=none;align=left;verticalAlign=top;spacingLeft=4;spacingRight=4;overflow=hidden;rotatable=0;points=[[0,0.5],[1,0.5]];portConstraint=eastwest;whiteSpace=wrap;html=1;" vertex="1" parent="6PBvyCpjfgC3d_i1cKHy-30">
          <mxGeometry y="148" width="245" height="26" as="geometry" />
        </mxCell>
        <mxCell id="6PBvyCpjfgC3d_i1cKHy-52" value="+ SetStateNoMoney(): bool" style="text;strokeColor=none;fillColor=none;align=left;verticalAlign=top;spacingLeft=4;spacingRight=4;overflow=hidden;rotatable=0;points=[[0,0.5],[1,0.5]];portConstraint=eastwest;whiteSpace=wrap;html=1;" vertex="1" parent="6PBvyCpjfgC3d_i1cKHy-30">
          <mxGeometry y="174" width="245" height="26" as="geometry" />
        </mxCell>
        <mxCell id="6PBvyCpjfgC3d_i1cKHy-33" value="+ GetStateStealBackPack(): bool" style="text;strokeColor=none;fillColor=none;align=left;verticalAlign=top;spacingLeft=4;spacingRight=4;overflow=hidden;rotatable=0;points=[[0,0.5],[1,0.5]];portConstraint=eastwest;whiteSpace=wrap;html=1;" vertex="1" parent="6PBvyCpjfgC3d_i1cKHy-30">
          <mxGeometry y="200" width="245" height="26" as="geometry" />
        </mxCell>
        <mxCell id="6PBvyCpjfgC3d_i1cKHy-53" value="+ SetStateStealBackPack(): bool" style="text;strokeColor=none;fillColor=none;align=left;verticalAlign=top;spacingLeft=4;spacingRight=4;overflow=hidden;rotatable=0;points=[[0,0.5],[1,0.5]];portConstraint=eastwest;whiteSpace=wrap;html=1;" vertex="1" parent="6PBvyCpjfgC3d_i1cKHy-30">
          <mxGeometry y="226" width="245" height="26" as="geometry" />
        </mxCell>
        <mxCell id="6PBvyCpjfgC3d_i1cKHy-41" value="+ GetStateFamilyDead(): bool" style="text;strokeColor=none;fillColor=none;align=left;verticalAlign=top;spacingLeft=4;spacingRight=4;overflow=hidden;rotatable=0;points=[[0,0.5],[1,0.5]];portConstraint=eastwest;whiteSpace=wrap;html=1;" vertex="1" parent="6PBvyCpjfgC3d_i1cKHy-30">
          <mxGeometry y="252" width="245" height="26" as="geometry" />
        </mxCell>
        <mxCell id="6PBvyCpjfgC3d_i1cKHy-54" value="+ SetStateFamilyDead(): bool" style="text;strokeColor=none;fillColor=none;align=left;verticalAlign=top;spacingLeft=4;spacingRight=4;overflow=hidden;rotatable=0;points=[[0,0.5],[1,0.5]];portConstraint=eastwest;whiteSpace=wrap;html=1;" vertex="1" parent="6PBvyCpjfgC3d_i1cKHy-30">
          <mxGeometry y="278" width="245" height="26" as="geometry" />
        </mxCell>
        <mxCell id="6PBvyCpjfgC3d_i1cKHy-40" value="+ GetStateLitoDead(): bool" style="text;strokeColor=none;fillColor=none;align=left;verticalAlign=top;spacingLeft=4;spacingRight=4;overflow=hidden;rotatable=0;points=[[0,0.5],[1,0.5]];portConstraint=eastwest;whiteSpace=wrap;html=1;" vertex="1" parent="6PBvyCpjfgC3d_i1cKHy-30">
          <mxGeometry y="304" width="245" height="26" as="geometry" />
        </mxCell>
        <mxCell id="6PBvyCpjfgC3d_i1cKHy-55" value="+ SetStateLitoDead(): bool" style="text;strokeColor=none;fillColor=none;align=left;verticalAlign=top;spacingLeft=4;spacingRight=4;overflow=hidden;rotatable=0;points=[[0,0.5],[1,0.5]];portConstraint=eastwest;whiteSpace=wrap;html=1;" vertex="1" parent="6PBvyCpjfgC3d_i1cKHy-30">
          <mxGeometry y="330" width="245" height="26" as="geometry" />
        </mxCell>
        <mxCell id="6PBvyCpjfgC3d_i1cKHy-42" value="Use" style="endArrow=open;endSize=12;dashed=1;html=1;rounded=0;exitX=0.5;exitY=1;exitDx=0;exitDy=0;entryX=0.5;entryY=0;entryDx=0;entryDy=0;" edge="1" parent="WIyWlLk6GJQsqaUBKTNV-1" source="zkfFHV4jXpPFQw0GAbJ--0" target="6PBvyCpjfgC3d_i1cKHy-30">
          <mxGeometry width="160" relative="1" as="geometry">
            <mxPoint x="450" y="350" as="sourcePoint" />
            <mxPoint x="610" y="350" as="targetPoint" />
          </mxGeometry>
        </mxCell>
        <mxCell id="6PBvyCpjfgC3d_i1cKHy-48" value="Use" style="endArrow=open;endSize=12;dashed=1;html=1;rounded=0;entryX=1.018;entryY=0.214;entryDx=0;entryDy=0;entryPerimeter=0;exitX=0.483;exitY=1;exitDx=0;exitDy=0;exitPerimeter=0;" edge="1" parent="WIyWlLk6GJQsqaUBKTNV-1" source="6PBvyCpjfgC3d_i1cKHy-9" target="6PBvyCpjfgC3d_i1cKHy-37">
          <mxGeometry width="160" relative="1" as="geometry">
            <mxPoint x="115" y="278" as="sourcePoint" />
            <mxPoint x="115" y="660" as="targetPoint" />
            <Array as="points">
              <mxPoint x="360" y="710" />
            </Array>
          </mxGeometry>
        </mxCell>
        <mxCell id="6PBvyCpjfgC3d_i1cKHy-49" value="Use" style="endArrow=open;endSize=12;dashed=1;html=1;rounded=0;entryX=1;entryY=0.5;entryDx=0;entryDy=0;exitX=0.473;exitY=1.045;exitDx=0;exitDy=0;exitPerimeter=0;" edge="1" parent="WIyWlLk6GJQsqaUBKTNV-1" source="6PBvyCpjfgC3d_i1cKHy-13" target="6PBvyCpjfgC3d_i1cKHy-36">
          <mxGeometry width="160" relative="1" as="geometry">
            <mxPoint x="374" y="574" as="sourcePoint" />
            <mxPoint x="242" y="718" as="targetPoint" />
            <Array as="points">
              <mxPoint x="604" y="745" />
            </Array>
          </mxGeometry>
        </mxCell>
        <mxCell id="6PBvyCpjfgC3d_i1cKHy-50" value="Use" style="endArrow=open;endSize=12;dashed=1;html=1;rounded=0;entryX=1.002;entryY=0.8;entryDx=0;entryDy=0;entryPerimeter=0;" edge="1" parent="WIyWlLk6GJQsqaUBKTNV-1" source="6PBvyCpjfgC3d_i1cKHy-21" target="6PBvyCpjfgC3d_i1cKHy-38">
          <mxGeometry width="160" relative="1" as="geometry">
            <mxPoint x="614" y="589" as="sourcePoint" />
            <mxPoint x="238" y="755" as="targetPoint" />
            <Array as="points">
              <mxPoint x="850" y="784" />
            </Array>
          </mxGeometry>
        </mxCell>
        <mxCell id="6PBvyCpjfgC3d_i1cKHy-51" value="Use" style="endArrow=open;endSize=12;dashed=1;html=1;rounded=0;entryX=1.006;entryY=1.038;entryDx=0;entryDy=0;entryPerimeter=0;exitX=0.545;exitY=1.009;exitDx=0;exitDy=0;exitPerimeter=0;" edge="1" parent="WIyWlLk6GJQsqaUBKTNV-1" source="6PBvyCpjfgC3d_i1cKHy-26" target="6PBvyCpjfgC3d_i1cKHy-39">
          <mxGeometry width="160" relative="1" as="geometry">
            <mxPoint x="860" y="586" as="sourcePoint" />
            <mxPoint x="238" y="794" as="targetPoint" />
            <Array as="points">
              <mxPoint x="1120" y="825" />
            </Array>
          </mxGeometry>
        </mxCell>
      </root>
    </mxGraphModel>
  </diagram>
</mxfile>
